<?xml version="1.0" encoding="UTF-8"?>
<svg width="601px" height="601px" viewBox="0 0 601 601" version="1.1" xmlns="http://www.w3.org/2000/svg" xmlns:xlink="http://www.w3.org/1999/xlink">
    <!-- Generator: Sketch 52.5 (67469) - http://www.bohemiancoding.com/sketch -->
    <title>Jsond</title>
    <desc>Created with Sketch.</desc>
    <g id="Page-1" stroke="none" stroke-width="1" fill="none" fill-rule="evenodd">
        <g id="Jsond">
            <path d="M203.652812,142 L398,142 L398,384.871469 C398,425.262443 387.437758,457.047907 366.312958,480.228814 C345.188158,503.40972 313.501434,515 271.251834,515 C253.999914,515 237.628439,512.365846 222.136919,507.097458 C206.645399,501.82907 193.26656,494.102217 182,483.916667 L212.630807,433.340395 C216.503687,436.501428 223.457163,440.45266 233.491443,445.194209 C243.525723,449.935758 254.880132,452.306497 267.555012,452.306497 C276.004932,452.306497 284.014632,450.98942 291.584352,448.355226 C299.154072,445.721032 305.755473,441.330775 311.388753,435.184322 C317.022033,429.037869 321.422967,421.047601 324.591687,411.213277 C327.760407,401.378953 329.344743,389.086232 329.344743,374.334746 L329.344743,199.951977 L203.652812,199.951977 L203.652812,142 Z M289,70.0337838 C289,59.0021971 293.068861,49.5721112 301.206704,41.7432432 C309.344547,33.9143753 320.666594,30 335.173184,30 C350.033594,30 361.886362,33.9143753 370.731844,41.7432432 C379.577325,49.5721112 384,59.0021971 384,70.0337838 C384,81.4212281 379.577325,90.7623509 370.731844,98.0574324 C361.886362,105.352514 350.033594,109 335.173184,109 C320.666594,109 309.344547,105.352514 301.206704,98.0574324 C293.068861,90.7623509 289,81.4212281 289,70.0337838 Z" id="[j]" fill="#4A90E2"></path>
            <polygon id="Path" fill="#414141" points="0 0 170.27 0 170.27 47.3331183 53.4518481 47.3331183 53.4518481 352.846882 170.27 352.846882 170.27 400.18 0 400.18"></polygon>
            <polygon id="Path" fill="#414141" points="600.27 600.18 430 600.18 430 552.846882 546.818152 552.846882 546.818152 247.333118 430 247.333118 430 200 600.27 200"></polygon>
        </g>
    </g>
</svg>